<?xml version="1.0" standalone="no"?>
<!DOCTYPE svg PUBLIC "-//W3C//DTD SVG 20010904//EN"
 "http://www.w3.org/TR/2001/REC-SVG-20010904/DTD/svg10.dtd">
<svg version="1.0" xmlns="http://www.w3.org/2000/svg"
 width="500.000000pt" height="500.000000pt" viewBox="0 0 500.000000 500.000000"
 preserveAspectRatio="xMidYMid meet">

<g transform="translate(0.000000,500.000000) scale(0.100000,-0.100000)"
fill="#000000" stroke="none">
<path d="M2370 4154 c-454 -52 -794 -217 -1084 -525 -444 -472 -566 -1172
-310 -1780 206 -489 657 -862 1170 -969 238 -49 470 -49 708 0 584 122 1071
578 1240 1163 92 316 84 662 -20 976 -140 421 -440 767 -843 970 -125 63 -293
116 -466 147 -81 14 -330 26 -395 18z m-210 -1018 c19 -10 160 -142 313 -294
l277 -277 0 298 0 297 343 -2 342 -3 0 -295 0 -295 -342 -3 -343 -2 -2 -584
-3 -585 -292 361 -293 361 0 224 0 223 -179 0 -179 0 -49 58 c-62 72 -416 512
-427 530 -7 11 65 13 396 10 370 -3 406 -5 438 -22z"/>
</g>
</svg>
